HIERARCHY
ROOT Hips
{
  OFFSET 0 0 0
  CHANNELS 6 Xposition Yposition Zposition Zrotation Yrotation Xrotation
  JOINT LeftThigh
  {
    OFFSET 8.409438 0 -5.917753
    CHANNELS 3 Zrotation Yrotation Xrotation
    JOINT LeftLeg
    {
      OFFSET 0 0 -42.358652
      CHANNELS 3 Zrotation Yrotation Xrotation
      JOINT LeftFoot
      {
        OFFSET 0 0 -39.357303
        CHANNELS 3 Zrotation Yrotation Xrotation
      }
    }
  }
  JOINT RightThigh
  {
    OFFSET -8.409438 0 -5.917753
    CHANNELS 3 Zrotation Yrotation Xrotation
    JOINT RightLeg
    {
      OFFSET 0 0 -42.358652
      CHANNELS 3 Zrotation Yrotation Xrotation
      JOINT RightFoot
      {
        OFFSET 0 0 -39.357303
        CHANNELS 3 Zrotation Yrotation Xrotation
      }
    }
  }
  JOINT SpineLow
  {
    OFFSET 0 0 4.719101
    CHANNELS 3 Zrotation Yrotation Xrotation
    JOINT SpineMid
    {
      OFFSET 0 0 12.899191
      CHANNELS 3 Zrotation Yrotation Xrotation
      JOINT Chest
      {
        OFFSET 0 0 12.899191
        CHANNELS 3 Zrotation Yrotation Xrotation
        JOINT LeftShoulder
        {
          OFFSET 7.550562 1.41573 9.438202
          CHANNELS 3 Zrotation Yrotation Xrotation
          JOINT LeftArm
          {
            OFFSET 9.155056 0 4.247191
            CHANNELS 3 Zrotation Yrotation Xrotation
            JOINT LeftForearm
            {
              OFFSET 0 0 25.771955
              CHANNELS 3 Zrotation Yrotation Xrotation
              JOINT LeftHand
              {
                OFFSET 0 0 25.197169
                CHANNELS 3 Zrotation Yrotation Xrotation
              }
            }
          }
        }
        JOINT RightShoulder
        {
          OFFSET -7.550562 1.41573 9.438202
          CHANNELS 3 Zrotation Yrotation Xrotation
          JOINT RightArm
          {
            OFFSET -9.155056 0 4.247191
            CHANNELS 3 Zrotation Yrotation Xrotation
            JOINT RightForearm
            {
              OFFSET 0 0 -25.771955
              CHANNELS 3 Zrotation Yrotation Xrotation
              JOINT RightHand
              {
                OFFSET 0 0 -25.197169
                CHANNELS 3 Zrotation Yrotation Xrotation
              }
            }
          }
        }
        JOINT Neck
        {
          OFFSET 0 0 15.101124
          CHANNELS 3 Zrotation Yrotation Xrotation
          JOINT Head
          {
            OFFSET 0 0 11.325843
            CHANNELS 3 Zrotation Yrotation Xrotation
            End Site
            {
              OFFSET 0 0 14.157303
            }
          }
        }
      }
    }
  }
}
MOTION
Frames: 11
Frame Time: 0.01
0.0  101.685394  0.0  -0.711981  31.898351  -102.527999  13.91914  -19.76783  -3.514932  -12.802245  11.302381  28.516709  2.927109  3.024427  4.004444  -24.145236  19.692883  1.395764  -6.988654  2.539262  22.15347  3.902529  5.28054  -1.592101  -0.621276  0.934931  1.329636  -1.646968  2.588626  3.611824  -1.646968  2.588626  3.611823  -5.006355  21.762522  32.143174  152.992376  75.69475  -126.135798  -50.625376  21.545593  75.960629  77.221859  12.604343  19.072186  16.915981  -18.868892  17.422826  129.488508  68.074194  45.845042  -29.46696  -23.046877  -102.975242  78.18387  8.27811  35.585085  -1.221599  -5.44637  -1.438451  -0.928368  -4.081951  -1.088946  
0.0  101.685394  0.0  -0.980808  32.238499  -102.70534  14.156291  -20.155239  -4.094273  -13.089458  11.710695  29.285329  2.662077  3.160385  3.886031  -23.931849  19.45415  0.95653  -7.320709  2.761097  23.516898  3.789777  5.616426  -1.620189  -0.659106  0.923158  1.348273  -1.750287  2.558999  3.66157  -1.750287  2.558999  3.66157  -4.808826  21.864121  32.015135  153.485433  75.431577  -125.931129  -49.922839  21.467069  76.330053  77.823491  12.119458  19.597381  16.913436  -18.815961  17.77908  128.760133  68.440985  44.964326  -28.839119  -22.919464  -103.263436  76.574422  7.198102  36.299044  -1.400229  -5.459967  -1.383319  -1.061773  -4.09186  -1.049251  
0.0  101.685394  0.0  -1.21296  32.498824  -102.819896  14.316219  -20.481914  -4.754696  -13.367045  12.186535  30.04509  2.394658  3.28282  3.792318  -23.606317  19.252292  0.412227  -7.860609  3.001732  24.944793  3.882149  5.965561  -1.622475  -0.674672  0.91687  1.376204  -1.792094  2.543417  3.73749  -1.792094  2.543417  3.73749  -5.045697  21.839686  31.742966  154.250011  75.268278  -125.593891  -48.905001  20.629317  77.022311  77.580741  11.485236  18.631956  16.858759  -18.852758  18.087174  128.231846  68.805261  44.412292  -28.286788  -22.584223  -103.413028  75.066532  6.549714  36.597217  -1.662376  -5.456831  -1.384113  -1.258237  -4.088923  -1.05219  
0.0  101.685394  0.0  -1.434602  32.586753  -102.912706  14.655618  -20.798751  -5.36669  -13.722041  12.663039  30.789181  2.294768  3.411206  3.735814  -23.338669  18.959743  -0.20624  -8.077879  3.250604  26.372041  3.895528  6.340015  -1.630344  -0.674713  0.906443  1.414313  -1.791314  2.515941  3.841946  -1.791315  2.515941  3.841946  -5.147737  21.824589  31.466278  154.405391  75.558418  -125.666265  -47.95086  18.9472  77.666518  76.305105  10.977795  17.1811  16.656365  -18.82815  18.355207  127.876409  69.126942  43.909142  -27.772247  -21.97021  -103.511847  73.894782  5.928773  36.644346  -1.841746  -5.509252  -1.473048  -1.393568  -4.127578  -1.120592  
0.0  101.685394  0.0  -1.540173  32.799841  -102.867209  14.561876  -20.817668  -6.073862  -14.081438  13.191627  31.575209  2.636359  3.562797  3.822392  -23.476515  18.674669  -1.078121  -7.586523  3.485698  27.938116  3.49431  6.594711  -1.731452  -0.705479  0.914255  1.447398  -1.873686  2.539983  3.931031  -1.873686  2.539983  3.931031  -5.550171  21.778654  31.026605  154.925701  75.983164  -125.539809  -47.17115  16.750461  78.190576  74.298305  10.854904  15.71645  16.533935  -18.829949  18.628157  127.716561  69.331328  43.449143  -27.33454  -20.746719  -103.463522  72.988318  5.134003  36.737109  -2.033699  -5.514903  -1.605672  -1.538635  -4.130927  -1.22174  
0.0  101.685394  0.0  -1.730288  32.691288  -102.861977  14.738716  -20.997439  -6.723543  -14.287215  13.614029  32.430394  2.806825  3.719144  3.74882  -23.348275  18.323884  -2.045073  -7.557904  3.74732  29.542796  3.625722  6.935801  -1.764753  -0.70439  0.900854  1.48137  -1.870185  2.504246  4.024306  -1.870185  2.504246  4.024306  -5.729248  21.689195  30.581  155.057502  76.535888  -125.627893  -46.528008  14.48017  78.676806  71.840503  11.072254  14.357372  16.322331  -18.781677  18.816327  127.553698  69.601281  42.923985  -26.839215  -19.302989  -103.295411  72.139011  4.149096  36.910275  -2.096755  -5.582157  -1.774315  -1.587587  -4.180637  -1.348905  
0.0  101.685394  0.0  -1.850705  32.659662  -102.788635  14.629752  -21.006421  -7.387968  -14.397422  14.042682  33.382057  3.228421  3.866373  3.713556  -23.370481  18.159344  -3.0917  -7.463671  3.849589  31.108827  3.968684  7.340782  -1.741416  -0.746562  0.922928  1.516341  -1.982774  2.568135  4.117717  -1.982775  2.568135  4.117718  -6.404869  21.462866  29.870615  156.304049  76.872993  -125.140274  -46.062906  12.791315  78.997016  69.530569  11.234661  13.140201  16.466011  -18.914782  18.869632  127.309888  69.963096  42.337463  -26.419305  -17.855385  -102.96907  71.39851  2.828372  37.264775  -2.09261  -5.710621  -1.958315  -1.586527  -4.276379  -1.48715  
0.0  101.685394  0.0  -2.027886  32.279559  -102.786943  14.865965  -21.166885  -7.905927  -14.360825  14.218976  34.298927  3.348347  4.05234  3.589119  -23.566285  17.889314  -4.056792  -6.858796  3.86204  32.451935  4.004515  7.591934  -1.724806  -0.711165  0.901906  1.576304  -1.884993  2.510181  4.283605  -1.884993  2.510181  4.283605  -6.961523  21.267424  29.160602  157.09499  77.328854  -124.832363  -45.711606  12.049005  79.261678  67.681767  11.227233  12.025296  16.2963  -18.879115  18.67676  126.935428  70.261731  41.482138  -26.274308  -16.76183  -102.420936  70.710812  1.292282  37.48682  -2.157283  -5.815283  -2.22138  -1.637797  -4.353763  -1.685216  
0.0  101.685394  0.0  -2.143876  31.773844  -102.801342  14.88458  -21.072031  -8.290679  -14.261018  14.389049  35.28253  3.889774  4.11285  3.502149  -24.098349  17.650802  -5.034578  -5.834337  3.778756  33.616999  4.252243  7.880567  -1.642593  -0.670079  0.896592  1.653935  -1.770062  2.495043  4.49758  -1.770062  2.495043  4.49758  -7.723759  21.035293  28.319844  157.967286  77.842856  -124.563556  -45.573514  11.999386  79.509615  66.255045  11.171559  11.056455  16.394015  -18.987688  18.295974  126.455598  70.554543  40.66586  -26.381948  -16.236286  -101.605656  70.184494  -0.231831  37.507998  -2.180184  -5.960509  -2.524538  -1.658394  -4.461545  -1.913051  
0.0  101.685394  0.0  -2.220419  31.07221  -102.819835  15.325074  -21.107028  -8.494815  -14.108328  14.180956  36.054219  3.910818  4.255175  3.414998  -24.538443  17.487598  -5.982054  -4.829843  3.524921  34.623496  4.368937  8.087421  -1.535774  -0.616907  0.888239  1.744312  -1.621875  2.470777  4.746915  -1.621875  2.470776  4.746914  -8.608543  20.904513  27.340874  159.032968  78.376285  -124.423775  -45.454537  12.764074  79.937661  65.302951  11.203621  10.273275  16.496225  -19.10202  17.693637  125.877939  70.607008  39.678817  -26.472475  -16.042431  -100.85675  69.502433  -1.417276  37.552785  -2.146042  -6.086145  -2.88752  -1.636909  -4.554669  -2.185073  
0.0  101.685394  0.0  -2.260005  30.177251  -102.823979  15.829922  -21.010973  -8.586709  -13.971084  13.817733  36.726892  3.865102  4.35601  3.3341  -24.994629  17.346758  -6.88354  -3.714585  3.13322  35.390246  4.585687  8.308189  -1.36473  -0.576653  0.87093  1.815357  -1.510453  2.422189  4.943033  -1.510453  2.422189  4.943034  -9.356295  20.974175  26.534096  160.583135  79.071101  -124.018779  -45.331777  14.282737  80.458066  64.994242  11.252792  9.681685  16.840187  -19.298517  17.161104  125.449839  70.423609  38.984186  -26.591412  -15.842913  -100.1299  68.686311  -2.009102  37.330065  -1.972016  -6.144152  -3.223098  -1.510154  -4.597936  -2.434923  
